<svg width="194" height="36" viewBox="0 0 194 36" fill="none" xmlns="http://www.w3.org/2000/svg">
<path d="M13.7144 21.3862C13.7144 20.9989 13.6574 20.6514 13.5435 20.3438C13.4295 20.0247 13.2188 19.7285 12.9111 19.4551C12.6035 19.1816 12.1592 18.9082 11.5781 18.6348C11.0085 18.3499 10.2565 18.0537 9.32227 17.7461C8.22852 17.3815 7.17464 16.9714 6.16064 16.5156C5.14665 16.0485 4.24089 15.5073 3.44336 14.8921C2.64583 14.2655 2.01351 13.5363 1.54639 12.7046C1.07926 11.8615 0.845703 10.8817 0.845703 9.76514C0.845703 8.69417 1.08496 7.73145 1.56348 6.87695C2.04199 6.01107 2.7085 5.2762 3.56299 4.67236C4.42887 4.05713 5.44287 3.59001 6.60498 3.271C7.76709 2.94059 9.03743 2.77539 10.416 2.77539C12.2389 2.77539 13.8454 3.0944 15.2354 3.73242C16.6367 4.35905 17.7305 5.25342 18.5166 6.41553C19.3141 7.56624 19.7129 8.92773 19.7129 10.5H13.7485C13.7485 9.87337 13.6175 9.3208 13.3555 8.84229C13.1048 8.36377 12.7231 7.98779 12.2104 7.71436C11.6978 7.44092 11.054 7.3042 10.2793 7.3042C9.52734 7.3042 8.89502 7.41813 8.38232 7.646C7.86963 7.87386 7.48226 8.18148 7.22021 8.56885C6.95817 8.94482 6.82715 9.36068 6.82715 9.81641C6.82715 10.1924 6.92969 10.5342 7.13477 10.8418C7.35124 11.138 7.65316 11.4172 8.04053 11.6792C8.43929 11.9412 8.91781 12.1919 9.47607 12.4312C10.0457 12.6704 10.6838 12.904 11.3901 13.1318C12.7118 13.5534 13.8853 14.0262 14.9106 14.5503C15.9474 15.063 16.819 15.6497 17.5254 16.3105C18.2432 16.96 18.7843 17.7005 19.1489 18.5322C19.5249 19.3639 19.7129 20.3039 19.7129 21.3521C19.7129 22.4686 19.4964 23.4598 19.0635 24.3257C18.6305 25.1916 18.0096 25.9264 17.2007 26.5303C16.3918 27.1227 15.4233 27.5728 14.2954 27.8804C13.1675 28.188 11.9085 28.3418 10.5186 28.3418C9.24251 28.3418 7.98356 28.1823 6.7417 27.8633C5.51123 27.5329 4.39469 27.0316 3.39209 26.3594C2.38949 25.6758 1.58626 24.8042 0.982422 23.7446C0.389974 22.6737 0.09375 21.4033 0.09375 19.9336H6.10938C6.10938 20.6628 6.20622 21.278 6.3999 21.7793C6.59359 22.2806 6.87842 22.6851 7.25439 22.9927C7.63037 23.2889 8.0918 23.5054 8.63867 23.6421C9.18555 23.7674 9.81217 23.8301 10.5186 23.8301C11.2819 23.8301 11.8971 23.7218 12.3643 23.5054C12.8314 23.2775 13.1732 22.9813 13.3896 22.6167C13.6061 22.2407 13.7144 21.8306 13.7144 21.3862Z" fill="#43FF78"/>
<path d="M33.2378 28.3418C31.7339 28.3418 30.3895 28.1082 29.2046 27.6411C28.0197 27.1626 27.0171 26.5075 26.1968 25.6758C25.3879 24.8441 24.7669 23.887 24.334 22.8047C23.9124 21.7223 23.7017 20.5773 23.7017 19.3696V18.7202C23.7017 17.3644 23.8896 16.1112 24.2656 14.9604C24.6416 13.7983 25.1999 12.7843 25.9404 11.9185C26.681 11.0526 27.6095 10.3804 28.7261 9.90186C29.8426 9.41195 31.1414 9.16699 32.6226 9.16699C33.9328 9.16699 35.1063 9.37777 36.1431 9.79932C37.1799 10.2209 38.0571 10.8247 38.7749 11.6108C39.5041 12.397 40.0566 13.3483 40.4326 14.4648C40.82 15.5814 41.0137 16.8346 41.0137 18.2246V20.5659H25.9062V16.96H35.3911V16.5156C35.4025 15.9004 35.2943 15.3763 35.0664 14.9434C34.8499 14.5104 34.5309 14.18 34.1094 13.9521C33.6878 13.7243 33.1751 13.6104 32.5713 13.6104C31.9447 13.6104 31.4263 13.7471 31.0161 14.0205C30.6173 14.2939 30.304 14.6699 30.0762 15.1484C29.8597 15.6156 29.7059 16.1567 29.6147 16.772C29.5236 17.3872 29.478 18.0366 29.478 18.7202V19.3696C29.478 20.0532 29.5692 20.6742 29.7515 21.2324C29.9452 21.7907 30.2186 22.2692 30.5718 22.668C30.9364 23.0553 31.3693 23.3573 31.8706 23.5737C32.3833 23.7902 32.9644 23.8984 33.6138 23.8984C34.3999 23.8984 35.1746 23.7503 35.938 23.4541C36.7013 23.1579 37.3564 22.668 37.9033 21.9844L40.5181 25.0947C40.1421 25.6302 39.6066 26.1486 38.9116 26.6499C38.228 27.1512 37.4077 27.5614 36.4507 27.8804C35.4937 28.188 34.4227 28.3418 33.2378 28.3418Z" fill="#43FF78"/>
<path d="M50.7617 13.4565V28H45.0024V9.50879H50.4028L50.7617 13.4565ZM50.0781 18.1221L48.728 18.1562C48.728 16.7435 48.8989 15.4845 49.2407 14.3794C49.5825 13.2629 50.0667 12.3172 50.6934 11.5425C51.32 10.7677 52.0662 10.181 52.9321 9.78223C53.8094 9.37207 54.7835 9.16699 55.8545 9.16699C56.709 9.16699 57.4894 9.29232 58.1958 9.54297C58.9136 9.79362 59.5288 10.1981 60.0415 10.7563C60.5656 11.3146 60.9644 12.0552 61.2378 12.978C61.5226 13.8895 61.665 15.0174 61.665 16.3618V28H55.8716V16.3447C55.8716 15.6042 55.769 15.0402 55.564 14.6528C55.3589 14.2541 55.0627 13.9806 54.6753 13.8325C54.2879 13.6844 53.8151 13.6104 53.2568 13.6104C52.6644 13.6104 52.1631 13.7243 51.7529 13.9521C51.3428 14.18 51.0124 14.499 50.7617 14.9092C50.5225 15.3079 50.3459 15.7808 50.2319 16.3276C50.1294 16.8745 50.0781 17.4727 50.0781 18.1221Z" fill="#43FF78"/>
<path d="M77.2407 23.7617V1.75H83.0342V28H77.8389L77.2407 23.7617ZM65.8931 18.9766V18.6177C65.8931 17.2163 66.0469 15.9403 66.3545 14.7896C66.6621 13.6274 67.1178 12.6305 67.7217 11.7988C68.3255 10.9557 69.0775 10.3063 69.9775 9.85059C70.8776 9.39486 71.9144 9.16699 73.0879 9.16699C74.1361 9.16699 75.0532 9.41195 75.8394 9.90186C76.6255 10.3804 77.2977 11.0526 77.856 11.9185C78.4142 12.7843 78.87 13.7983 79.2231 14.9604C79.5763 16.1112 79.8441 17.353 80.0264 18.686V19.1133C79.8441 20.3665 79.5763 21.5514 79.2231 22.668C78.87 23.7731 78.4142 24.7529 77.856 25.6074C77.2977 26.4619 76.6198 27.1341 75.8223 27.624C75.0361 28.1025 74.1133 28.3418 73.0537 28.3418C71.8802 28.3418 70.8434 28.1082 69.9434 27.6411C69.0547 27.174 68.3084 26.5189 67.7046 25.6758C67.1121 24.8327 66.6621 23.8415 66.3545 22.7021C66.0469 21.5628 65.8931 20.321 65.8931 18.9766ZM71.6523 18.6177V18.9766C71.6523 19.6715 71.6979 20.3153 71.7891 20.9077C71.8802 21.5002 72.034 22.0243 72.2505 22.48C72.4784 22.9243 72.7746 23.2718 73.1392 23.5225C73.5151 23.7731 73.9766 23.8984 74.5234 23.8984C75.264 23.8984 75.8735 23.7218 76.3521 23.3687C76.842 23.0155 77.2008 22.5142 77.4287 21.8647C77.668 21.2153 77.7705 20.452 77.7363 19.5747V18.2246C77.7591 17.4727 77.7078 16.8118 77.5825 16.2422C77.4572 15.6611 77.2578 15.1769 76.9844 14.7896C76.7223 14.4022 76.3862 14.1117 75.9761 13.918C75.5773 13.7129 75.1045 13.6104 74.5576 13.6104C74.0221 13.6104 73.5664 13.7357 73.1904 13.9863C72.8258 14.237 72.5296 14.5902 72.3018 15.0459C72.0739 15.4902 71.9087 16.02 71.8062 16.6353C71.7036 17.2391 71.6523 17.8999 71.6523 18.6177Z" fill="#43FF78"/>
<path d="M105.326 23.5566V28H87.9629V24.2402L95.9609 15.832C96.6673 15.0231 97.237 14.2996 97.6699 13.6616C98.1029 13.0122 98.4162 12.4255 98.6099 11.9014C98.8149 11.3773 98.9175 10.9045 98.9175 10.4829C98.9175 9.76514 98.8092 9.16699 98.5928 8.68848C98.3877 8.19857 98.0801 7.82829 97.6699 7.57764C97.2712 7.32699 96.7756 7.20166 96.1831 7.20166C95.5907 7.20166 95.0723 7.37256 94.6279 7.71436C94.1836 8.05615 93.8361 8.52327 93.5854 9.11572C93.3462 9.70817 93.2266 10.3747 93.2266 11.1152H87.4502C87.4502 9.58854 87.8205 8.19287 88.561 6.92822C89.313 5.66357 90.3555 4.65527 91.6885 3.90332C93.0215 3.13997 94.5653 2.7583 96.3198 2.7583C98.1541 2.7583 99.6922 3.04313 100.934 3.61279C102.176 4.18245 103.11 5.00846 103.737 6.09082C104.375 7.16178 104.694 8.45492 104.694 9.97021C104.694 10.8361 104.557 11.6678 104.284 12.4653C104.01 13.2629 103.617 14.0547 103.104 14.8408C102.592 15.6156 101.965 16.4131 101.225 17.2334C100.495 18.0537 99.6637 18.9253 98.7295 19.8481L95.5166 23.5566H105.326Z" fill="#43FF78"/>
<path d="M13.7144 21.3862C13.7144 20.9989 13.6574 20.6514 13.5435 20.3438C13.4295 20.0247 13.2188 19.7285 12.9111 19.4551C12.6035 19.1816 12.1592 18.9082 11.5781 18.6348C11.0085 18.3499 10.2565 18.0537 9.32227 17.7461C8.22852 17.3815 7.17464 16.9714 6.16064 16.5156C5.14665 16.0485 4.24089 15.5073 3.44336 14.8921C2.64583 14.2655 2.01351 13.5363 1.54639 12.7046C1.07926 11.8615 0.845703 10.8817 0.845703 9.76514C0.845703 8.69417 1.08496 7.73145 1.56348 6.87695C2.04199 6.01107 2.7085 5.2762 3.56299 4.67236C4.42887 4.05713 5.44287 3.59001 6.60498 3.271C7.76709 2.94059 9.03743 2.77539 10.416 2.77539C12.2389 2.77539 13.8454 3.0944 15.2354 3.73242C16.6367 4.35905 17.7305 5.25342 18.5166 6.41553C19.3141 7.56624 19.7129 8.92773 19.7129 10.5H13.7485C13.7485 9.87337 13.6175 9.3208 13.3555 8.84229C13.1048 8.36377 12.7231 7.98779 12.2104 7.71436C11.6978 7.44092 11.054 7.3042 10.2793 7.3042C9.52734 7.3042 8.89502 7.41813 8.38232 7.646C7.86963 7.87386 7.48226 8.18148 7.22021 8.56885C6.95817 8.94482 6.82715 9.36068 6.82715 9.81641C6.82715 10.1924 6.92969 10.5342 7.13477 10.8418C7.35124 11.138 7.65316 11.4172 8.04053 11.6792C8.43929 11.9412 8.91781 12.1919 9.47607 12.4312C10.0457 12.6704 10.6838 12.904 11.3901 13.1318C12.7118 13.5534 13.8853 14.0262 14.9106 14.5503C15.9474 15.063 16.819 15.6497 17.5254 16.3105C18.2432 16.96 18.7843 17.7005 19.1489 18.5322C19.5249 19.3639 19.7129 20.3039 19.7129 21.3521C19.7129 22.4686 19.4964 23.4598 19.0635 24.3257C18.6305 25.1916 18.0096 25.9264 17.2007 26.5303C16.3918 27.1227 15.4233 27.5728 14.2954 27.8804C13.1675 28.188 11.9085 28.3418 10.5186 28.3418C9.24251 28.3418 7.98356 28.1823 6.7417 27.8633C5.51123 27.5329 4.39469 27.0316 3.39209 26.3594C2.38949 25.6758 1.58626 24.8042 0.982422 23.7446C0.389974 22.6737 0.09375 21.4033 0.09375 19.9336H6.10938C6.10938 20.6628 6.20622 21.278 6.3999 21.7793C6.59359 22.2806 6.87842 22.6851 7.25439 22.9927C7.63037 23.2889 8.0918 23.5054 8.63867 23.6421C9.18555 23.7674 9.81217 23.8301 10.5186 23.8301C11.2819 23.8301 11.8971 23.7218 12.3643 23.5054C12.8314 23.2775 13.1732 22.9813 13.3896 22.6167C13.6061 22.2407 13.7144 21.8306 13.7144 21.3862Z" fill="#43FF78"/>
<path d="M33.2378 28.3418C31.7339 28.3418 30.3895 28.1082 29.2046 27.6411C28.0197 27.1626 27.0171 26.5075 26.1968 25.6758C25.3879 24.8441 24.7669 23.887 24.334 22.8047C23.9124 21.7223 23.7017 20.5773 23.7017 19.3696V18.7202C23.7017 17.3644 23.8896 16.1112 24.2656 14.9604C24.6416 13.7983 25.1999 12.7843 25.9404 11.9185C26.681 11.0526 27.6095 10.3804 28.7261 9.90186C29.8426 9.41195 31.1414 9.16699 32.6226 9.16699C33.9328 9.16699 35.1063 9.37777 36.1431 9.79932C37.1799 10.2209 38.0571 10.8247 38.7749 11.6108C39.5041 12.397 40.0566 13.3483 40.4326 14.4648C40.82 15.5814 41.0137 16.8346 41.0137 18.2246V20.5659H25.9062V16.96H35.3911V16.5156C35.4025 15.9004 35.2943 15.3763 35.0664 14.9434C34.8499 14.5104 34.5309 14.18 34.1094 13.9521C33.6878 13.7243 33.1751 13.6104 32.5713 13.6104C31.9447 13.6104 31.4263 13.7471 31.0161 14.0205C30.6173 14.2939 30.304 14.6699 30.0762 15.1484C29.8597 15.6156 29.7059 16.1567 29.6147 16.772C29.5236 17.3872 29.478 18.0366 29.478 18.7202V19.3696C29.478 20.0532 29.5692 20.6742 29.7515 21.2324C29.9452 21.7907 30.2186 22.2692 30.5718 22.668C30.9364 23.0553 31.3693 23.3573 31.8706 23.5737C32.3833 23.7902 32.9644 23.8984 33.6138 23.8984C34.3999 23.8984 35.1746 23.7503 35.938 23.4541C36.7013 23.1579 37.3564 22.668 37.9033 21.9844L40.5181 25.0947C40.1421 25.6302 39.6066 26.1486 38.9116 26.6499C38.228 27.1512 37.4077 27.5614 36.4507 27.8804C35.4937 28.188 34.4227 28.3418 33.2378 28.3418Z" fill="#43FF78"/>
<path d="M50.7617 13.4565V28H45.0024V9.50879H50.4028L50.7617 13.4565ZM50.0781 18.1221L48.728 18.1562C48.728 16.7435 48.8989 15.4845 49.2407 14.3794C49.5825 13.2629 50.0667 12.3172 50.6934 11.5425C51.32 10.7677 52.0662 10.181 52.9321 9.78223C53.8094 9.37207 54.7835 9.16699 55.8545 9.16699C56.709 9.16699 57.4894 9.29232 58.1958 9.54297C58.9136 9.79362 59.5288 10.1981 60.0415 10.7563C60.5656 11.3146 60.9644 12.0552 61.2378 12.978C61.5226 13.8895 61.665 15.0174 61.665 16.3618V28H55.8716V16.3447C55.8716 15.6042 55.769 15.0402 55.564 14.6528C55.3589 14.2541 55.0627 13.9806 54.6753 13.8325C54.2879 13.6844 53.8151 13.6104 53.2568 13.6104C52.6644 13.6104 52.1631 13.7243 51.7529 13.9521C51.3428 14.18 51.0124 14.499 50.7617 14.9092C50.5225 15.3079 50.3459 15.7808 50.2319 16.3276C50.1294 16.8745 50.0781 17.4727 50.0781 18.1221Z" fill="#43FF78"/>
<path d="M77.2407 23.7617V1.75H83.0342V28H77.8389L77.2407 23.7617ZM65.8931 18.9766V18.6177C65.8931 17.2163 66.0469 15.9403 66.3545 14.7896C66.6621 13.6274 67.1178 12.6305 67.7217 11.7988C68.3255 10.9557 69.0775 10.3063 69.9775 9.85059C70.8776 9.39486 71.9144 9.16699 73.0879 9.16699C74.1361 9.16699 75.0532 9.41195 75.8394 9.90186C76.6255 10.3804 77.2977 11.0526 77.856 11.9185C78.4142 12.7843 78.87 13.7983 79.2231 14.9604C79.5763 16.1112 79.8441 17.353 80.0264 18.686V19.1133C79.8441 20.3665 79.5763 21.5514 79.2231 22.668C78.87 23.7731 78.4142 24.7529 77.856 25.6074C77.2977 26.4619 76.6198 27.1341 75.8223 27.624C75.0361 28.1025 74.1133 28.3418 73.0537 28.3418C71.8802 28.3418 70.8434 28.1082 69.9434 27.6411C69.0547 27.174 68.3084 26.5189 67.7046 25.6758C67.1121 24.8327 66.6621 23.8415 66.3545 22.7021C66.0469 21.5628 65.8931 20.321 65.8931 18.9766ZM71.6523 18.6177V18.9766C71.6523 19.6715 71.6979 20.3153 71.7891 20.9077C71.8802 21.5002 72.034 22.0243 72.2505 22.48C72.4784 22.9243 72.7746 23.2718 73.1392 23.5225C73.5151 23.7731 73.9766 23.8984 74.5234 23.8984C75.264 23.8984 75.8735 23.7218 76.3521 23.3687C76.842 23.0155 77.2008 22.5142 77.4287 21.8647C77.668 21.2153 77.7705 20.452 77.7363 19.5747V18.2246C77.7591 17.4727 77.7078 16.8118 77.5825 16.2422C77.4572 15.6611 77.2578 15.1769 76.9844 14.7896C76.7223 14.4022 76.3862 14.1117 75.9761 13.918C75.5773 13.7129 75.1045 13.6104 74.5576 13.6104C74.0221 13.6104 73.5664 13.7357 73.1904 13.9863C72.8258 14.237 72.5296 14.5902 72.3018 15.0459C72.0739 15.4902 71.9087 16.02 71.8062 16.6353C71.7036 17.2391 71.6523 17.8999 71.6523 18.6177Z" fill="#43FF78"/>
<path d="M105.326 23.5566V28H87.9629V24.2402L95.9609 15.832C96.6673 15.0231 97.237 14.2996 97.6699 13.6616C98.1029 13.0122 98.4162 12.4255 98.6099 11.9014C98.8149 11.3773 98.9175 10.9045 98.9175 10.4829C98.9175 9.76514 98.8092 9.16699 98.5928 8.68848C98.3877 8.19857 98.0801 7.82829 97.6699 7.57764C97.2712 7.32699 96.7756 7.20166 96.1831 7.20166C95.5907 7.20166 95.0723 7.37256 94.6279 7.71436C94.1836 8.05615 93.8361 8.52327 93.5854 9.11572C93.3462 9.70817 93.2266 10.3747 93.2266 11.1152H87.4502C87.4502 9.58854 87.8205 8.19287 88.561 6.92822C89.313 5.66357 90.3555 4.65527 91.6885 3.90332C93.0215 3.13997 94.5653 2.7583 96.3198 2.7583C98.1541 2.7583 99.6922 3.04313 100.934 3.61279C102.176 4.18245 103.11 5.00846 103.737 6.09082C104.375 7.16178 104.694 8.45492 104.694 9.97021C104.694 10.8361 104.557 11.6678 104.284 12.4653C104.01 13.2629 103.617 14.0547 103.104 14.8408C102.592 15.6156 101.965 16.4131 101.225 17.2334C100.495 18.0537 99.6637 18.9253 98.7295 19.8481L95.5166 23.5566H105.326Z" fill="#43FF78"/>
<path d="M119.247 26.7803L120.573 22.4844H128.053L129.383 26.7807L129.492 27.1328H129.86H136.32H137.038L136.789 26.4595L127.595 1.5767L127.474 1.25H127.126H126.127H125.554H122.99H122.409H121.469H121.12L121 1.57755L111.857 26.4604L111.61 27.1328H112.326H118.769H119.138L119.247 26.7803ZM124.308 10.3862L126.309 16.853H122.311L124.308 10.3862ZM144.694 9.12062L144.601 8.09633L144.56 7.6416H144.103H138.703H138.203V8.1416V26.6328V27.1328H138.703H144.462H144.962V26.6328V13.6898C145.157 13.4064 145.401 13.1858 145.696 13.022C146.015 12.8449 146.428 12.7432 146.957 12.7432C147.474 12.7432 147.883 12.8122 148.197 12.9324C148.46 13.0328 148.666 13.2154 148.82 13.5143L148.819 13.5143L148.822 13.5196C148.971 13.8012 149.072 14.2693 149.072 14.9775V26.6328V27.1328H149.572H155.365H155.865V26.6328V14.9946C155.865 13.6202 155.72 12.4395 155.416 11.4652C155.127 10.4889 154.696 9.67567 154.108 9.04884C153.54 8.43108 152.856 7.9816 152.062 7.70415C151.295 7.43226 150.458 7.2998 149.555 7.2998C148.419 7.2998 147.372 7.5176 146.422 7.96149C145.785 8.25498 145.209 8.64216 144.694 9.12062ZM158.129 8.30492L164.526 26.8125L164.118 27.8516L164.113 27.8637L164.109 27.8761C164.013 28.1652 163.883 28.3967 163.725 28.5804L163.725 28.5802L163.716 28.5912C163.598 28.7377 163.404 28.8746 163.092 28.9783L163.088 28.9798C162.797 29.0797 162.37 29.1406 161.781 29.1406H161.78H161.779H161.778H161.778H161.777H161.776H161.775H161.774H161.774H161.773H161.772H161.771H161.77H161.77H161.769H161.768H161.767H161.766H161.766H161.765H161.764H161.763H161.762H161.762H161.761H161.76H161.759H161.758H161.758H161.757H161.756H161.755H161.754H161.754H161.753H161.752H161.751H161.751H161.75H161.749H161.748H161.747H161.747H161.746H161.745H161.744H161.743H161.743H161.742H161.741H161.74H161.739H161.739H161.738H161.737H161.736H161.736H161.735H161.734H161.733H161.732H161.732H161.731H161.73H161.729H161.728H161.728H161.727H161.726H161.725H161.725H161.724H161.723H161.722H161.721H161.721H161.72H161.719H161.718H161.718H161.717H161.716H161.715H161.714H161.714H161.713H161.712H161.711H161.71H161.71H161.709H161.708H161.707H161.707H161.706H161.705H161.704H161.704H161.703H161.702H161.701H161.7H161.7H161.699H161.698H161.697H161.697H161.696H161.695H161.694H161.693H161.693H161.692H161.691H161.69H161.69H161.689H161.688H161.687H161.687H161.686H161.685H161.684H161.683H161.683H161.682H161.681H161.68H161.68H161.679H161.678H161.677H161.677H161.676H161.675H161.674H161.673H161.673H161.672H161.671H161.67H161.67H161.669H161.668H161.667H161.667H161.666H161.665H161.664H161.664H161.663H161.662H161.661H161.66H161.66H161.659H161.658H161.657H161.657H161.656H161.655H161.654H161.654H161.653H161.652H161.651H161.651H161.65H161.649H161.648H161.648H161.647H161.646H161.645H161.645H161.644H161.643H161.642H161.642H161.641H161.64H161.639H161.639H161.638H161.637H161.636H161.636H161.635H161.634H161.633H161.633H161.632H161.631H161.63H161.63H161.629H161.628H161.627H161.627H161.626H161.625H161.624H161.624H161.623H161.622H161.621H161.621H161.62H161.619H161.618H161.618H161.617H161.616H161.615H161.615H161.614H161.613H161.612H161.612H161.611H161.61H161.609H161.609H161.608H161.607H161.606H161.606H161.605H161.604H161.603H161.603H161.602H161.601H161.6H161.6H161.599H161.598H161.597H161.597H161.596H161.595H161.595H161.594H161.593H161.592H161.592H161.591H161.59H161.589H161.589H161.588H161.587H161.586H161.586H161.585H161.584H161.583H161.583H161.582H161.581H161.581H161.58H161.579H161.578H161.578H161.577H161.576H161.575H161.575H161.574H161.573H161.573H161.572H161.571H161.57H161.57H161.569H161.568H161.567H161.567H161.566H161.565H161.564H161.564H161.563H161.562H161.562H161.561H161.56H161.559H161.559H161.558H161.557H161.557H161.556H161.555H161.554H161.554H161.553H161.552H161.551H161.551H161.55H161.549H161.549H161.548H161.547H161.546H161.546H161.545H161.544H161.544H161.543H161.542H161.541H161.541H161.54H161.539H161.538H161.538H161.537H161.536H161.536H161.535H161.534H161.533H161.533H161.532H161.531H161.531H161.53H161.529H161.528H161.528H161.527H161.526H161.526H161.525H161.524H161.523H161.523H161.522H161.521H161.521H161.52H161.519H161.518H161.518H161.517H161.516H161.516H161.515H161.514H161.514H161.513H161.512H161.511H161.511H161.51H161.509H161.509H161.508H161.507H161.506H161.506H161.505H161.504H161.504H161.503H161.502H161.502H161.501H161.5H161.499H161.499H161.498H161.497H161.497H161.496H161.495H161.494H161.494H161.493H161.492H161.492H161.491H161.49H161.49H161.489H161.488H161.487H161.487H161.486H161.485H161.485H161.484H161.483H161.483H161.482H161.481H161.48H161.48H161.479H161.478H161.478H161.477H161.476H161.476H161.475H161.474H161.474H161.473H161.472H161.471H161.471H161.47H161.469H161.469H161.468H161.467H161.467H161.466H161.465H161.465H161.464H161.463H161.462H161.462H161.461H161.46H161.46H161.459H161.458H161.458H161.457H161.456H161.456H161.455H161.454H161.454H161.453H161.452H161.451H161.451H161.45H161.449H161.449H161.448H161.447H161.447H161.446H161.445H161.445H161.444H161.443H161.443H161.442H161.441H161.441H161.44H161.439H161.438H161.438H161.437H161.436H161.436H161.435H161.434H161.434H161.433H161.432H161.432H161.431H161.43H161.43H161.429H161.428H161.428H161.427H161.426H161.426H161.425H161.424H161.424H161.423H161.422H161.422H161.421H161.42H161.42H161.419H161.418H161.418H161.417H161.416H161.416H161.415H161.414H161.413H161.413H161.412H161.411H161.411H161.41H161.409H161.409H161.408H161.407H161.407H161.406H161.405H161.405H161.404H161.404H161.403H161.402H161.402H161.401H161.401H161.4H161.399H161.399H161.398H161.398H161.397H161.396H161.396H161.395H161.394H161.394H161.393H161.393H161.392H161.391H161.391H161.39H161.39H161.389H161.388H161.388H161.387H161.387H161.386H161.385H161.385H161.384H161.383H161.383H161.382H161.382H161.381H161.38H161.38H161.379H161.378H161.378H161.377H161.377H161.376H161.375H161.375H161.374H161.373H161.373H161.372H161.372H161.371H161.37H161.37H161.369H161.368H161.368H161.367H161.367H161.366H161.365H161.365H161.364H161.363H161.363H161.362H161.361H161.361H161.36H161.36H161.359H161.358H161.358H161.357H161.356H161.356H161.355H161.354H161.354H161.353H161.352H161.352H161.351H161.351H161.35H161.349H161.349H161.348H161.347H161.347H161.346H161.345H161.345H161.344H161.343H161.343H161.342H161.341H161.341H161.34H161.339H161.339H161.338H161.338H161.337H161.336H161.336H161.335H161.334H161.334H161.333H161.332H161.332H161.331H161.33H161.33H161.329H161.328H161.328H161.327H161.326H161.326H161.325H161.324H161.324H161.323H161.322H161.322H161.321H161.32H161.32H161.319H161.318H161.318H161.317H161.316H161.316H161.315H161.314H161.314H161.313H161.312H161.312H161.311H161.31H161.309H161.309H161.308H161.307H161.307H161.306H161.305H161.305H161.304H161.303H161.303H161.302H161.301H161.301H161.3H161.299H161.299H161.298H161.297H161.296H161.296H161.295H161.294H161.294H161.293H161.292H161.292H161.291H161.29H161.29H161.289H161.288H161.287H161.287H161.286H161.285H161.285H161.284H161.283H161.283H161.282H161.281H161.281H161.28H161.279H161.278H161.278H161.277H161.276H161.276H161.275H161.274H161.273H161.273H161.272H161.271H161.271H161.27H161.269H161.269H161.268H161.267H161.266H161.266H161.265H161.264H161.264H161.263H161.262H161.261H161.261H161.26H161.259H161.259H161.258H161.257H161.256H161.256H161.255H161.254H161.254H161.253H161.252H161.251H161.251H161.25H161.249H161.248H161.248H161.247H161.246H161.246H161.245H161.244H161.243H161.243H161.242H161.241H161.24H161.24H161.239H161.238H161.238H161.237H161.236H161.235H161.235H161.234H161.233H161.232H161.232H161.231H161.23H161.229H161.229H161.228H161.227H161.227H161.226H161.225H161.224H161.224H161.223H161.222H161.221H161.221H161.22H161.219H161.218H161.218H161.217H161.216H161.215H161.215H161.214H161.213H161.212H161.212H161.211H161.21H161.209H161.209H161.208H161.207H161.206H161.206H161.205H161.204H161.203H161.203H161.202H161.201H161.2H161.2H161.199H161.198H161.197H161.197H161.196H161.195H161.194H161.193H161.193H161.192H161.191H161.19H161.19H161.189H161.188H161.187H161.187H161.186H161.185H161.184H161.184H161.183H161.182H161.181H161.18H161.18H161.179H161.178H161.177H161.177H161.176H161.175H161.174H161.173H161.173H161.172H161.171H161.17H161.17H161.169H161.168H161.167H161.166H161.166H161.165H161.164H161.163H161.163H161.162H161.161H161.16H161.159H161.159H161.158H161.157H161.156H161.155H161.155H161.154H161.153H161.152H161.152H161.151H161.15H161.149H161.148H161.148H161.147H161.146H161.145H161.144H161.144H161.143H161.142H161.141H161.14H161.14H161.139H161.138H161.137H161.136H161.136H161.135H161.134H161.133H161.132H161.132H161.131H161.13H161.129H161.128H161.128H161.127H161.126H161.125H161.124H161.124H161.123H161.122H161.121H161.12H161.119H161.119H161.118H161.117H161.116H161.115H161.115H161.114H161.113H161.112H161.111H161.111H161.11H161.109H161.108H161.107H161.106H161.106H161.105H161.104H161.103H161.102H161.102H161.101H161.1H161.099H161.098H161.097H161.097H161.096H161.095H161.094H161.093H161.092H161.092H161.091H161.09H161.089H161.088H161.087H161.087H161.086H161.085H161.084H161.083H161.082H161.082H161.081H161.08H161.079H161.078H161.077H161.077H161.076H161.075H161.074H161.073H161.072H161.072H161.071H161.07H161.069H161.068H161.067H161.066H161.066H161.065H161.064H161.063H161.062H161.061H161.061H161.06H161.059H161.058H161.057H161.056H161.055H161.055H161.054H161.053H161.052H161.051H161.05H161.049H161.049H161.048H161.047H161.046H161.045H161.044H161.043H161.043H161.042H161.041H161.04H161.039H161.038H161.037H161.037H161.036H161.035H161.034H161.033H161.032H161.031H161.031H161.03H161.029H160.529V29.6406V33.7593V34.1538L160.913 34.2456C161.433 34.37 161.828 34.4576 162.093 34.5061C162.41 34.5737 162.862 34.6011 163.421 34.6011C164.514 34.6011 165.464 34.4413 166.252 34.0986C167.022 33.7682 167.669 33.3323 168.18 32.7839C168.666 32.2614 169.054 31.7023 169.34 31.1061C169.609 30.5569 169.828 30.0372 169.995 29.5477C169.995 29.5471 169.995 29.5465 169.996 29.5458L177.428 8.30676L177.661 7.6416H176.957H170.77H170.396L170.29 8.00093L167.719 16.7708L165.253 8.00617L165.15 7.6416H164.771H158.602H157.9L158.129 8.30492ZM193.374 1.75V1.25H192.874H192.344H192.26L192.181 1.27754L181.277 5.0544L180.941 5.17091V5.52686V9.90186V10.5688L181.581 10.3818L186.615 8.91113V26.6328V27.1328H187.115H192.874H193.374V26.6328V1.75Z" stroke="white"/>
</svg>
